<html>
<head>
<meta charset="UTF-8">
<meta name="viewport" content="width=device-width, initial-scale=1.0"/>

<style>
.comment
{
    padding-left: 20px;
    margin-top: 4px;
    margin-right: 4px;
    margin-bottom: 4px;
    border: 2px #000 solid;
}
.submission
{
    border: 4px #00f solid;
    padding-left: 20px;
}
.hidden
{
    display: none;
}
</style>
</head>
<body><div class="submission" id="t3_6myyfb">
    <p class="userinfo">
        <a href="https://www.reddit.com/u/n0197exe">n0197exe</a>
        <span class="score"> | 24 points</span>
        <span class="timestamp"> | Jul 13 2017 03:05:17</span>
    </p>
    <strong>[TV/PACK] The.Night.Manager.S01.1080p.BluRay.x264-SHORTBREHD [26.23GB]</strong>
    <p><p><a href="http://www.imdb.com/title/tt1399664">IMDb</a></p>
<hr>
<p><strong>MediaInfo</strong></p>
<p><strong>Video</strong></p>
<p>ID                                       : 1</p>
<p>Format                                   : AVC</p>
<p>Format/Info                              : Advanced Video Codec</p>
<p>Format profile                           : High@L4.1</p>
<p>Format settings, CABAC                   : Yes</p>
<p>Format settings, ReFrames                : 4 frames</p>
<p>Codec ID                                 : V_MPEG4/ISO/AVC</p>
<p>Duration                                 : 57mn 24s</p>
<p><strong>Bit rate                                 : 9 390 Kbps</strong></p>
<p><strong>Width                                    : 1 920 pixels</strong></p>
<p><strong>Height                                   : 1 080 pixels</strong></p>
<p>Display aspect ratio                     : 16:9</p>
<p>Frame rate mode                          : Constant</p>
<p>Frame rate                               : 25.000 fps</p>
<p>Color space                              : YUV</p>
<p>Chroma subsampling                       : 4:2:0</p>
<p>Bit depth                                : 8 bits</p>
<p>Scan type                                : Progressive</p>
<p>Bits/(Pixel*Frame)                       : 0.181</p>
<p>Stream size                              : 3.68 GiB (84%)</p>
<p>Writing library                          : x264 core 148 r2665 a01e339</p>
<p><strong>Language                                 : English</strong></p>
<p>Default                                  : Yes</p>
<p>Forced                                   : No</p>
<p>Statistics Tags Issue                    : no_variable_data 1970-01-01 00:00:00 / 
no_variable_data 2010-02-22 21:41:29</p>
<p>FromStats_BitRate                        : 9391856</p>
<p>FromStats_Duration                       : 00:57:24.160000000</p>
<p>FromStats_FrameCount                     : 86104</p>
<p>FromStats_StreamSize                     : 4043382165</p>
<p><strong>Audio</strong></p>
<p>ID                                       : 2</p>
<p><strong>Format                                   : DTS</strong></p>
<p><strong>Format/Info                              : Digital Theater Systems</strong></p>
<p>Mode                                     : 16</p>
<p>Format settings, Endianness              : Big</p>
<p>Codec ID                                 : A_DTS</p>
<p>Duration                                 : 57mn 24s</p>
<p>Bit rate mode                            : Constant</p>
<p>Bit rate                                 : 1 509 Kbps</p>
<p><strong>Channel(s)                               : 6 channels</strong></p>
<p>Channel positions                        : Front: L C R, Side: L R, LFE</p>
<p><strong>Sampling rate                            : 48.0 KHz</strong></p>
<p>Frame rate                               : 93.750 fps (512 spf)</p>
<p>Bit depth                                : 24 bits</p>
<p>Compression mode                         : Lossy</p>
<p>Stream size                              : 620 MiB (14%)</p>
<p><strong>Language                                 : English</strong></p>
<p>Default                                  : Yes</p>
<p>Forced                                   : No</p>
<p>Statistics Tags Issue                    : no_variable_data 1970-01-01 00:00:00 / 
no_variable_data 2010-02-22 21:41:29</p>
<p>FromStats_BitRate                        : 1508999</p>
<p>FromStats_Duration                       : 00:57:24.203000000</p>
<p>FromStats_FrameCount                     : 322894</p>
<p>FromStats_StreamSize                     : 649662728</p>
<p><strong>Menu</strong></p>
<p>00:00:00.000                             : en:00:00:00.000</p>
<p>00:09:11.200                             : en:00:09:11.200</p>
<p>00:21:51.280                             : en:00:21:51.280</p>
<p>00:33:01.280                             : en:00:33:01.280</p>
<p>00:43:55.280                             : en:00:43:55.280</p>
<p>00:54:42.680                             : en:00:54:42.680</p>
<hr>
<blockquote>
<p><strong>¡DELETE "MGL" FROM THE LINK</strong></p>
</blockquote>
<p><strong>LINK</strong> mega.co.nz/#F!u8U<strong>MGL</strong>X0RAB</p>
<p><strong>KEY:</strong> !HmIZtxaUy-Db79CLjA90eA</p></p>
    <p class="toolbar">
        <a href="https://www.reddit.com/r/megalinks/comments/6myyfb">permalink</a>
    </p>
</div>
<div class="comment" id="t1_dk5p7hc">
    <p class="userinfo">
        <a
        class="toggle_hide_button"
        href="javascript:void(0)"
        onclick="toggle_collapse(this.parentElement.parentElement)">[-]
        </a>
        <a href="https://www.reddit.com/u/iskanderalex222">iskanderalex222</a>
        <span class="score"> | 1 points</span>
        <span class="timestamp"> | Jul 13 2017 07:55:05</span>
    </p>
    <div class="collapsible">
        <p>thanks  :D but can u upload 720 please ")</p>
        <p class="toolbar">
            <a href="https://www.reddit.com/r/megalinks/comments/6myyfb/_/dk5p7hc">permalink</a>
        </p>
        
    </div>
</div>

<div class="comment" id="t1_dk5pvxn">
    <p class="userinfo">
        <a
        class="toggle_hide_button"
        href="javascript:void(0)"
        onclick="toggle_collapse(this.parentElement.parentElement)">[-]
        </a>
        <a href="https://www.reddit.com/u/halfdevil3">halfdevil3</a>
        <span class="score"> | 1 points</span>
        <span class="timestamp"> | Jul 13 2017 08:24:39</span>
    </p>
    <div class="collapsible">
        <p>Can anyone please tell how to use this link ?</p>
        <p class="toolbar">
            <a href="https://www.reddit.com/r/megalinks/comments/6myyfb/_/dk5pvxn">permalink</a>
        </p>
        <div class="comment" id="t1_dk5wqfw">
    <p class="userinfo">
        <a
        class="toggle_hide_button"
        href="javascript:void(0)"
        onclick="toggle_collapse(this.parentElement.parentElement)">[-]
        </a>
        <a href="https://www.reddit.com/u/iskanderalex222">iskanderalex222</a>
        <span class="score"> | 1 points</span>
        <span class="timestamp"> | Jul 13 2017 12:39:51</span>
    </p>
    <div class="collapsible">
        <p>no</p>
        <p class="toolbar">
            <a href="https://www.reddit.com/r/megalinks/comments/6myyfb/_/dk5wqfw">permalink</a>
        </p>
        
    </div>
</div>
    </div>
</div>
</body>

<script>
function toggle_collapse(comment_div)
{
    var button = comment_div.getElementsByClassName("toggle_hide_button")[0];
    var collapsible = comment_div.getElementsByClassName("collapsible")[0];
    if (collapsible.classList.contains("hidden"))
    {
        collapsible.classList.remove("hidden");
        button.innerText = "[-]";
    }
    else
    {
        collapsible.classList.add("hidden");
        button.innerText = "[+]";
    }
}
</script>
</html>
